<svg id="Слой_1" data-name="Слой 1" xmlns="http://www.w3.org/2000/svg" viewBox="0 0 85.2 33.9"><defs><style>.cls-1{fill:#fff;}</style></defs><title>STG wite</title><path class="cls-1" d="M479.46,422.2a10.16,10.16,0,0,1,6.85,9.72,10,10,0,0,1-3,7.3,9.83,9.83,0,0,1-7.23,3,10.07,10.07,0,0,1-7.3-3,9.89,9.89,0,0,1-3.05-7.29h6.55a3.78,3.78,0,0,0,1.1,2.74,3.68,3.68,0,0,0,2.7,1.11,3.61,3.61,0,0,0,2.65-1.1,3.67,3.67,0,0,0,1.1-2.71c0-1.78-1-3.05-3.05-3.82Zm-5.8,4.45a10,10,0,0,1-4.45-2.65,8.74,8.74,0,0,1-2.5-6.35,9.35,9.35,0,1,1,18.7,0H479a2.86,2.86,0,0,0-.8-2,2.66,2.66,0,0,0-2.05-.85,2.9,2.9,0,0,0-2.05.85,2.72,2.72,0,0,0-.9,2,2.62,2.62,0,0,0,1.8,2.65l1.35.6Z" transform="translate(-465.76 -408.3)"/><path class="cls-1" d="M491.56,409h20.35v6.45H491.56Zm6.95,9.95H505v22.6h-6.45Z" transform="translate(-465.76 -408.3)"/><path class="cls-1" d="M549.86,431.5a14.57,14.57,0,0,1-6,7.66,17,17,0,0,1-9.73,3A16.56,16.56,0,0,1,522,437.38a16.9,16.9,0,0,1,12.07-29.08,17.43,17.43,0,0,1,6.65,1.3,15.09,15.09,0,0,1,5.4,3.65l-4.75,4.45a10.6,10.6,0,0,0-14.35-.3,10,10,0,0,0-3.3,7.85,9.94,9.94,0,0,0,10.35,10.5,10.71,10.71,0,0,0,4.75-1.1,9.63,9.63,0,0,0,3.7-3.15Zm-14.45-9.9h15a8.57,8.57,0,0,1,.38,1.6,9.77,9.77,0,0,1,0,3.55,4.37,4.37,0,0,1-.35,1.3H535.41Z" transform="translate(-465.76 -408.3)"/></svg>